# xmcd
#
# Track frame offsets:
# 150
# 11403
# 23857
# 36419
# 49098
# 61765
# 73174
# 86660
# 98576
# 110872
# 123689
# 135283
# 148297
# 159944
# 172745
# 184130
# 196548
# 209089
# 220460
# 232711
# 245268
# 258128
# 267950
#
# Disc length: 3724 seconds
#
#
# Revision: 1
# Processed by: cddbd v1.5.2PL0 Copyright (c) Steve Scherf et al.
# Submitted via: FreeRIP 2.945 
#
DISCID=420e8a17
DTITLE=Clarence Gatemouth Brown - Rockin' Boogie Blues
DYEAR=2010
DGENRE=Blues
TTITLE0=Gatemouth Boogie
TTITLE1=Guitar In My Hand
TTITLE2=Didn't Reach My Goal
TTITLE3=My Time Is Expensive
TTITLE4=She Walk Right In
TTITLE5=Rock My Blues Away
TTITLE6=Win With Me Baby
TTITLE7=I Live My Life
TTITLE8=She Winked Her Eye
TTITLE9=Sad Hour
TTITLE10=Too Late Baby
TTITLE11=Just Got Lucky
TTITLE12=Baby, Take It Easy
TTITLE13=Dirty Work At The Crossroads
TTITLE14=You Got Money
TTITLE15=Boogie Uproar
TTITLE16=Please Tell Me Baby
TTITLE17=Gate Walks To Board
TTITLE18=Gate's Salty Blues
TTITLE19=In Can Never Be That Way
TTITLE20=I've Bee Mistreated
TTITLE21=Best Before Dawn
TTITLE22=Okie Dokie Stomp
EXTD=2010 Music Avenue
EXTT0=
EXTT1=
EXTT2=
EXTT3=
EXTT4=
EXTT5=
EXTT6=
EXTT7=
EXTT8=
EXTT9=
EXTT10=
EXTT11=
EXTT12=
EXTT13=
EXTT14=
EXTT15=
EXTT16=
EXTT17=
EXTT18=
EXTT19=
EXTT20=
EXTT21=
EXTT22=
PLAYORDER=
